<svg style="display:block" xmlns="http://www.w3.org/2000/svg" viewBox="0 0 710 580" role="img" aria-label="Hair House">
<title>Hair House</title>
<g fill="#ffffff" fill-rule="evenodd">
<path d="M 443.0 459.0 L 440.0 462.0 L 440.0 467.0 L 442.0 470.0 L 446.0 470.0 L 450.0 467.0 L 450.0 462.0 L 447.0 459.0 Z"/>
<path d="M 589.0 350.0 L 589.0 556.0 L 590.0 557.0 L 590.0 564.0 L 587.0 568.0 L 580.0 573.0 L 579.0 579.0 L 700.0 579.0 L 699.0 555.0 L 705.0 549.0 L 709.0 549.0 L 709.0 509.0 L 705.0 509.0 L 701.0 511.0 L 699.0 515.0 L 700.0 534.0 L 674.0 560.0 L 665.0 559.0 L 654.0 570.0 L 647.0 570.0 L 646.0 569.0 L 625.0 570.0 L 619.0 564.0 L 619.0 557.0 L 620.0 556.0 L 620.0 453.0 L 619.0 452.0 L 619.0 445.0 L 625.0 439.0 L 632.0 439.0 L 633.0 440.0 L 644.0 439.0 L 648.0 442.0 L 653.0 449.0 L 655.0 450.0 L 664.0 450.0 L 679.0 436.0 L 680.0 434.0 L 680.0 423.0 L 690.0 417.0 L 690.0 412.0 L 687.0 409.0 L 682.0 409.0 L 676.0 419.0 L 665.0 420.0 L 661.0 417.0 L 659.0 413.0 L 646.0 400.0 L 644.0 399.0 L 635.0 399.0 L 632.0 401.0 L 631.0 404.0 L 626.0 409.0 L 622.0 410.0 L 620.0 412.0 L 621.0 422.0 L 619.0 427.0 L 617.0 429.0 L 612.0 429.0 L 609.0 426.0 L 608.0 423.0 L 608.0 416.0 L 611.0 411.0 L 617.0 409.0 L 619.0 407.0 L 620.0 350.0 Z"/>
<path d="M 449.0 350.0 L 449.0 384.0 L 460.0 395.0 L 459.0 400.0 L 460.0 406.0 L 473.0 419.0 L 475.0 420.0 L 484.0 419.0 L 488.0 422.0 L 493.0 429.0 L 495.0 430.0 L 504.0 429.0 L 508.0 432.0 L 513.0 439.0 L 515.0 440.0 L 524.0 439.0 L 527.0 441.0 L 530.0 446.0 L 543.0 459.0 L 548.0 462.0 L 550.0 465.0 L 549.0 474.0 L 559.0 484.0 L 559.0 525.0 L 550.0 533.0 L 549.0 535.0 L 549.0 545.0 L 545.0 549.0 L 543.0 549.0 L 535.0 559.0 L 523.0 559.0 L 516.0 569.0 L 506.0 570.0 L 503.0 569.0 L 500.0 566.0 L 498.0 561.0 L 493.0 558.0 L 469.0 534.0 L 470.0 525.0 L 460.0 515.0 L 460.0 489.0 L 461.0 488.0 L 460.0 483.0 L 458.0 480.0 L 455.0 479.0 L 452.0 480.0 L 449.0 483.0 L 448.0 488.0 L 449.0 489.0 L 449.0 534.0 L 450.0 536.0 L 483.0 569.0 L 485.0 570.0 L 496.0 570.0 L 499.0 573.0 L 500.0 579.0 L 519.0 579.0 L 520.0 573.0 L 523.0 570.0 L 536.0 570.0 L 540.0 563.0 L 544.0 560.0 L 546.0 560.0 L 550.0 556.0 L 550.0 554.0 L 570.0 534.0 L 570.0 445.0 L 559.0 434.0 L 560.0 429.0 L 559.0 423.0 L 546.0 410.0 L 544.0 409.0 L 535.0 410.0 L 531.0 407.0 L 526.0 400.0 L 524.0 399.0 L 515.0 400.0 L 511.0 397.0 L 506.0 390.0 L 504.0 389.0 L 495.0 390.0 L 492.0 388.0 L 489.0 383.0 L 476.0 370.0 L 472.0 368.0 L 469.0 364.0 L 470.0 350.0 Z"/>
<path d="M 419.0 350.0 L 419.0 490.0 L 418.0 492.0 L 419.0 496.0 L 422.0 499.0 L 425.0 500.0 L 429.0 498.0 L 431.0 492.0 L 430.0 490.0 L 430.0 467.0 L 429.0 466.0 L 430.0 462.0 L 430.0 350.0 Z"/>
<path d="M 319.0 350.0 L 319.0 524.0 L 330.0 535.0 L 329.0 540.0 L 330.0 546.0 L 353.0 569.0 L 358.0 572.0 L 360.0 575.0 L 360.0 579.0 L 379.0 579.0 L 379.0 575.0 L 384.0 570.0 L 394.0 570.0 L 396.0 569.0 L 409.0 556.0 L 411.0 542.0 L 413.0 540.0 L 417.0 539.0 L 420.0 536.0 L 421.0 532.0 L 420.0 529.0 L 420.0 519.0 L 421.0 518.0 L 420.0 513.0 L 417.0 510.0 L 414.0 509.0 L 410.0 511.0 L 408.0 517.0 L 409.0 519.0 L 409.0 535.0 L 408.0 537.0 L 401.0 541.0 L 398.0 546.0 L 385.0 559.0 L 382.0 560.0 L 373.0 559.0 L 369.0 553.0 L 356.0 540.0 L 352.0 538.0 L 349.0 534.0 L 350.0 515.0 L 339.0 504.0 L 339.0 497.0 L 340.0 496.0 L 340.0 350.0 Z"/>
<path d="M 149.0 350.0 L 149.0 385.0 L 139.0 395.0 L 139.0 464.0 L 150.0 475.0 L 149.0 504.0 L 160.0 515.0 L 159.0 524.0 L 170.0 535.0 L 169.0 540.0 L 170.0 546.0 L 193.0 569.0 L 195.0 570.0 L 200.0 569.0 L 206.0 570.0 L 210.0 575.0 L 210.0 579.0 L 229.0 579.0 L 229.0 575.0 L 234.0 570.0 L 246.0 570.0 L 250.0 563.0 L 254.0 560.0 L 256.0 560.0 L 260.0 556.0 L 262.0 551.0 L 270.0 546.0 L 270.0 534.0 L 273.0 530.0 L 277.0 529.0 L 280.0 526.0 L 280.0 514.0 L 290.0 504.0 L 290.0 474.0 L 300.0 464.0 L 300.0 385.0 L 289.0 374.0 L 290.0 350.0 L 259.0 350.0 L 260.0 356.0 L 267.0 361.0 L 270.0 365.0 L 269.0 404.0 L 280.0 415.0 L 280.0 422.0 L 279.0 423.0 L 279.0 485.0 L 269.0 495.0 L 269.0 525.0 L 266.0 529.0 L 262.0 530.0 L 259.0 533.0 L 259.0 545.0 L 255.0 549.0 L 253.0 549.0 L 245.0 559.0 L 224.0 559.0 L 223.0 560.0 L 215.0 560.0 L 196.0 540.0 L 191.0 537.0 L 189.0 534.0 L 190.0 529.0 L 189.0 523.0 L 182.0 518.0 L 179.0 514.0 L 180.0 495.0 L 169.0 484.0 L 170.0 445.0 L 159.0 434.0 L 159.0 427.0 L 160.0 426.0 L 160.0 374.0 L 170.0 364.0 L 170.0 350.0 Z"/>
<path d="M 9.0 350.0 L 9.0 546.0 L 10.0 547.0 L 10.0 554.0 L 6.0 559.0 L 0.0 560.0 L 0.0 579.0 L 40.0 579.0 L 40.0 555.0 L 29.0 544.0 L 29.0 537.0 L 30.0 536.0 L 30.0 453.0 L 29.0 452.0 L 29.0 445.0 L 43.0 430.0 L 47.0 430.0 L 50.0 435.0 L 65.0 450.0 L 84.0 450.0 L 89.0 445.0 L 89.0 434.0 L 90.0 432.0 L 93.0 430.0 L 97.0 430.0 L 100.0 433.0 L 101.0 436.0 L 100.0 453.0 L 99.0 454.0 L 99.0 546.0 L 100.0 547.0 L 100.0 554.0 L 89.0 565.0 L 89.0 579.0 L 130.0 579.0 L 130.0 565.0 L 119.0 554.0 L 119.0 547.0 L 120.0 546.0 L 120.0 350.0 L 99.0 350.0 L 99.0 396.0 L 100.0 397.0 L 100.0 404.0 L 86.0 419.0 L 82.0 419.0 L 77.0 411.0 L 74.0 409.0 L 65.0 410.0 L 60.0 405.0 L 59.0 402.0 L 55.0 399.0 L 50.0 402.0 L 48.0 406.0 L 36.0 419.0 L 32.0 419.0 L 29.0 416.0 L 29.0 406.0 L 30.0 405.0 L 30.0 350.0 Z"/>
<path d="M 272.0 260.0 L 269.0 259.0 L 266.0 260.0 L 264.0 263.0 L 263.0 267.0 L 264.0 269.0 L 264.0 297.0 L 256.0 301.0 L 254.0 305.0 L 254.0 309.0 L 265.0 309.0 L 265.0 303.0 L 267.0 300.0 L 281.0 300.0 L 284.0 298.0 L 285.0 295.0 L 284.0 292.0 L 275.0 285.0 L 275.0 269.0 L 276.0 267.0 L 275.0 263.0 Z"/>
<path d="M 299.0 99.0 L 295.0 101.0 L 293.0 107.0 L 294.0 109.0 L 294.0 130.0 L 293.0 132.0 L 294.0 136.0 L 297.0 139.0 L 300.0 140.0 L 304.0 138.0 L 306.0 132.0 L 305.0 130.0 L 305.0 109.0 L 306.0 107.0 L 305.0 103.0 L 302.0 100.0 Z"/>
<path d="M 309.0 39.0 L 305.0 41.0 L 303.0 47.0 L 304.0 49.0 L 304.0 80.0 L 303.0 82.0 L 304.0 86.0 L 307.0 89.0 L 310.0 90.0 L 314.0 88.0 L 316.0 79.0 L 315.0 78.0 L 315.0 66.0 L 314.0 65.0 L 315.0 45.0 Z"/>
<path d="M 478.0 9.0 L 475.0 12.0 L 474.0 15.0 L 477.0 19.0 L 480.0 20.0 L 485.0 25.0 L 485.0 32.0 L 484.0 33.0 L 484.0 276.0 L 485.0 277.0 L 485.0 284.0 L 480.0 289.0 L 477.0 290.0 L 474.0 295.0 L 475.0 298.0 L 478.0 300.0 L 491.0 300.0 L 492.0 299.0 L 511.0 300.0 L 514.0 298.0 L 515.0 294.0 L 512.0 290.0 L 509.0 289.0 L 504.0 284.0 L 504.0 277.0 L 505.0 276.0 L 505.0 193.0 L 504.0 192.0 L 504.0 185.0 L 509.0 180.0 L 512.0 179.0 L 515.0 175.0 L 514.0 172.0 L 504.0 164.0 L 504.0 146.0 L 505.0 145.0 L 505.0 22.0 L 504.0 21.0 L 504.0 14.0 L 499.0 9.0 Z"/>
<path d="M 320.0 9.0 L 316.0 11.0 L 314.0 15.0 L 314.0 24.0 L 325.0 35.0 L 325.0 65.0 L 335.0 75.0 L 335.0 82.0 L 334.0 83.0 L 334.0 124.0 L 345.0 135.0 L 344.0 174.0 L 346.0 177.0 L 354.0 182.0 L 354.0 186.0 L 346.0 192.0 L 345.0 198.0 L 343.0 200.0 L 338.0 199.0 L 332.0 191.0 L 329.0 189.0 L 320.0 190.0 L 309.0 179.0 L 300.0 180.0 L 295.0 175.0 L 295.0 159.0 L 296.0 158.0 L 295.0 153.0 L 292.0 150.0 L 289.0 149.0 L 286.0 150.0 L 283.0 157.0 L 284.0 159.0 L 285.0 204.0 L 274.0 215.0 L 274.0 240.0 L 273.0 241.0 L 274.0 246.0 L 277.0 249.0 L 280.0 250.0 L 284.0 248.0 L 286.0 242.0 L 285.0 240.0 L 285.0 224.0 L 298.0 210.0 L 303.0 211.0 L 305.0 215.0 L 318.0 229.0 L 320.0 230.0 L 329.0 230.0 L 344.0 215.0 L 344.0 201.0 L 345.0 200.0 L 350.0 200.0 L 356.0 206.0 L 354.0 234.0 L 365.0 245.0 L 365.0 252.0 L 364.0 253.0 L 364.0 294.0 L 366.0 298.0 L 370.0 300.0 L 384.0 300.0 L 385.0 299.0 L 391.0 300.0 L 394.0 303.0 L 394.0 309.0 L 405.0 309.0 L 404.0 303.0 L 401.0 300.0 L 398.0 299.0 L 395.0 296.0 L 394.0 293.0 L 395.0 275.0 L 384.0 264.0 L 384.0 257.0 L 385.0 256.0 L 385.0 215.0 L 374.0 204.0 L 375.0 165.0 L 364.0 154.0 L 364.0 147.0 L 365.0 146.0 L 365.0 105.0 L 354.0 94.0 L 355.0 55.0 L 344.0 44.0 L 345.0 15.0 L 343.0 11.0 L 339.0 9.0 Z"/>
<path d="M 518.0 9.0 L 515.0 13.0 L 515.0 16.0 L 518.0 20.0 L 522.0 21.0 L 524.0 20.0 L 560.0 20.0 L 565.0 25.0 L 564.0 34.0 L 575.0 45.0 L 575.0 52.0 L 574.0 53.0 L 575.0 74.0 L 572.0 78.0 L 565.0 83.0 L 564.0 85.0 L 565.0 94.0 L 554.0 105.0 L 555.0 114.0 L 525.0 143.0 L 523.0 147.0 L 515.0 152.0 L 515.0 157.0 L 518.0 160.0 L 522.0 160.0 L 524.0 158.0 L 525.0 154.0 L 529.0 150.0 L 539.0 149.0 L 555.0 165.0 L 554.0 204.0 L 565.0 215.0 L 565.0 222.0 L 564.0 223.0 L 564.0 264.0 L 575.0 275.0 L 574.0 280.0 L 575.0 286.0 L 588.0 299.0 L 590.0 300.0 L 604.0 300.0 L 604.0 280.0 L 600.0 280.0 L 595.0 276.0 L 594.0 274.0 L 595.0 255.0 L 584.0 244.0 L 585.0 205.0 L 574.0 194.0 L 575.0 155.0 L 560.0 140.0 L 555.0 137.0 L 555.0 133.0 L 584.0 106.0 L 585.0 104.0 L 584.0 95.0 L 595.0 84.0 L 595.0 35.0 L 569.0 9.0 L 524.0 9.0 L 523.0 8.0 Z"/>
<path d="M 466.0 0.0 L 454.0 0.0 L 454.0 6.0 L 451.0 9.0 L 447.0 10.0 L 444.0 9.0 L 430.0 10.0 L 425.0 5.0 L 425.0 0.0 L 414.0 0.0 L 414.0 14.0 L 425.0 25.0 L 425.0 32.0 L 424.0 33.0 L 424.0 276.0 L 425.0 277.0 L 425.0 284.0 L 414.0 295.0 L 415.0 309.0 L 425.0 309.0 L 425.0 304.0 L 430.0 299.0 L 449.0 300.0 L 453.0 298.0 L 455.0 294.0 L 455.0 275.0 L 444.0 264.0 L 444.0 257.0 L 445.0 256.0 L 445.0 53.0 L 444.0 52.0 L 444.0 45.0 L 455.0 34.0 L 454.0 16.0 L 455.0 13.0 L 458.0 10.0 L 464.0 7.0 L 466.0 3.0 Z"/>
<path d="M 105.0 0.0 L 105.0 9.0 L 112.0 10.0 L 114.0 12.0 L 115.0 17.0 L 114.0 20.0 L 114.0 34.0 L 125.0 45.0 L 125.0 52.0 L 124.0 53.0 L 124.0 256.0 L 125.0 257.0 L 125.0 264.0 L 114.0 275.0 L 114.0 294.0 L 116.0 298.0 L 120.0 300.0 L 139.0 299.0 L 144.0 304.0 L 144.0 309.0 L 155.0 309.0 L 155.0 295.0 L 144.0 284.0 L 144.0 277.0 L 145.0 276.0 L 145.0 183.0 L 144.0 182.0 L 144.0 175.0 L 146.0 172.0 L 158.0 160.0 L 162.0 160.0 L 165.0 165.0 L 178.0 179.0 L 180.0 180.0 L 189.0 180.0 L 192.0 178.0 L 193.0 175.0 L 198.0 170.0 L 203.0 167.0 L 204.0 163.0 L 208.0 159.0 L 212.0 159.0 L 215.0 162.0 L 215.0 166.0 L 211.0 170.0 L 209.0 170.0 L 205.0 173.0 L 205.0 183.0 L 204.0 184.0 L 204.0 287.0 L 205.0 288.0 L 205.0 293.0 L 204.0 296.0 L 201.0 299.0 L 197.0 300.0 L 194.0 303.0 L 193.0 309.0 L 205.0 309.0 L 205.0 303.0 L 208.0 300.0 L 212.0 299.0 L 215.0 300.0 L 224.0 300.0 L 225.0 299.0 L 231.0 300.0 L 234.0 303.0 L 234.0 309.0 L 245.0 309.0 L 245.0 305.0 L 243.0 301.0 L 238.0 299.0 L 235.0 296.0 L 234.0 293.0 L 234.0 288.0 L 235.0 287.0 L 235.0 22.0 L 234.0 21.0 L 234.0 16.0 L 235.0 13.0 L 238.0 10.0 L 242.0 9.0 L 245.0 6.0 L 246.0 0.0 L 234.0 0.0 L 234.0 6.0 L 231.0 9.0 L 227.0 10.0 L 224.0 9.0 L 215.0 9.0 L 214.0 10.0 L 208.0 9.0 L 205.0 6.0 L 205.0 0.0 L 193.0 0.0 L 194.0 6.0 L 197.0 9.0 L 201.0 10.0 L 204.0 13.0 L 205.0 16.0 L 205.0 21.0 L 204.0 22.0 L 204.0 135.0 L 205.0 136.0 L 205.0 146.0 L 202.0 149.0 L 196.0 148.0 L 192.0 141.0 L 189.0 139.0 L 180.0 140.0 L 169.0 129.0 L 160.0 129.0 L 156.0 132.0 L 155.0 134.0 L 155.0 145.0 L 153.0 148.0 L 147.0 149.0 L 144.0 146.0 L 143.0 143.0 L 144.0 126.0 L 145.0 125.0 L 145.0 33.0 L 144.0 32.0 L 144.0 25.0 L 155.0 14.0 L 155.0 0.0 L 144.0 0.0 L 144.0 5.0 L 139.0 10.0 L 117.0 9.0 L 115.0 7.0 L 114.0 0.0 Z"/>
</g>
</svg>